<svg xmlns="http://www.w3.org/2000/svg" width="128" height="128" xmlns:v="https://vecta.io/nano"><g fill="#ffa815"><path d="M41.376 84.872c10.184-8.376 29.864-1.824 49.488 1.096 15.16 2.256 23.072-5.968 37.136-2.72-9.64 3.688-19.792 15.768-32 17.392-11.296 1.504-35.528 2.136-48-.512-17.768-3.776-19.584-4.592-6.624-15.248z" paint-order="stroke markers fill"/><path d="M49.936 74.536C61.976 72.416 79.6 93.368 96 96c7.736 1.24 16 0 29.296 8-13.296 0-25.176 5.296-33.648 5.296-12.808 0-40.008-5-46.88-13.032s-6.432-19.68 5.168-21.728z" paint-order="stroke markers fill"/></g><path d="M56.328 80.768c-5.984-.08-11.136.968-14.952 4.112l-1.096.92c.184 3.504 1.752 7.28 4.488 10.472 1.352 1.584 3.504 3.04 6.168 4.376 13.032 2.024 34.6 1.392 45.064 0 3.504-.464 6.832-1.824 10.032-3.56L96 96c-8.912-1.432-18.176-8.264-26.72-13.872-4.592-.76-8.96-1.304-12.952-1.36z" fill="#f58512" paint-order="stroke markers fill"/><path d="M43.504 74.128c10.016-7.016 34.032.68 50.536-1.256C103.968 71.712 112 68.248 120 64c-.496 5.128-11.824 20.016-24 24s-33.376 4.624-42.248 3.248C43.304 89.632 33.848 80.88 43.504 74.12z" fill="#ffcc31" paint-order="stroke markers fill"/><path d="M85.52 32.616l4.824 19.424 5.904-5.36a3.44 3.44 0 0 0-.096-5.208z" fill="#fff" paint-order="stroke markers fill"/><path d="M40 16l5.824-16H64l5.824 16" fill="#3f6588" paint-order="stroke markers fill"/><path d="M47.52 10.8C14.304 19.696-1.008 46.056 6.672 74.736l3.32 12.376 13.48-3.608c1.096-.296 1.744-1.416 1.448-2.504l-.504-1.888A12 12 0 1 1 47.6 72.904l2.656 9.912c.248.928 1.2 1.472 2.128 1.224l19.832-5.312c.928-.248 1.472-1.2 1.224-2.128L70.2 64.496c-.248-.928.304-1.872 1.224-2.128l12.104-3.24c.928-.248 1.872.296 2.128 1.224l3.24 12.104c.248.928 1.2 1.472 2.128 1.224l6.056-1.624-12.424-46.368C80.496 10.24 66.04 5.832 47.52 10.8z" fill="#478cbf" paint-order="stroke markers fill"/><path d="M36.048 62c-1.824 0-3.616.36-5.28 1.032-3.328 1.344-6.152 3.936-7.656 7.488l-.752 1.8-12.904-5.424a2 2 0 0 0-2.624 1.048L5.72 70.552l.952 4.184 40.368 5.96c3.936-9.12.992-14.8-5.56-17.584A13.84 13.84 0 0 0 36.04 62z" fill="#363d52" paint-order="stroke markers fill"/><path d="M40.696 64.96a12 12 0 0 0-15.736 6.352l-.768 1.8a2.04 2.04 0 0 1-2.688 1.08l-12.84-5.456-3.128 7.36a24 24 0 0 0 12.696 31.48l44.176 18.776a16 16 0 0 0 20.984-8.464l3.128-7.36-5.768-2.448c-.88-.376-1.296-1.392-.92-2.272l4.904-11.536c.376-.88-.032-1.896-.92-2.272L72.28 87.096c-.88-.376-1.896.032-2.272.92l-4.904 11.536c-.376.88-1.392 1.296-2.272.92L43.936 92.44c-.88-.376-1.296-1.392-.92-2.272l4.016-9.448a12 12 0 0 0-6.352-15.736z" fill="#478cbf" paint-order="stroke markers fill"/><circle cx="36" cy="76" r="4" fill="#363d52" paint-order="stroke markers fill"/><path d="M22.92 23.24V6.216L40 0l10.944 13.04" fill="#478cbf" paint-order="stroke markers fill"/><path d="M16.176 44.144L7.488 25.496 23.016 9.968l18.64 8.696-16.968-1.992-10.608 10.92z" fill="#363d52" paint-order="stroke markers fill"/><path d="M16.176 44.144L10.048 26.12l13.496-13.496 18.112 6.04" fill="#478cbf" paint-order="stroke markers fill"/><ellipse cx="54.146" cy="52.303" rx="10" ry="12" transform="rotate(345)" fill="#fff" paint-order="stroke markers fill"/><circle cx="68" cy="36" r="4" fill="#363d52" paint-order="stroke markers fill"/></svg>