<svg xmlns="http://www.w3.org/2000/svg" width="16" height="16" xmlns:v="https://vecta.io/nano"><g fill="#ffa815"><path d="M5.172 10.609c1.273-1.047 3.733-.228 6.186.137 1.895.282 2.884-.746 4.642-.34-1.205.461-2.474 1.971-4 2.174-1.412.188-4.441.267-6-.064-2.221-.472-2.448-.574-.828-1.906z" paint-order="stroke markers fill"/><path d="M6.242 9.317C7.747 9.052 9.95 11.671 12 12c.967.155 2 0 3.662 1-1.662 0-3.147.662-4.206.662-1.601 0-5.001-.625-5.86-1.629s-.804-2.46.646-2.716z" paint-order="stroke markers fill"/></g><path d="M7.041 10.096c-.748-.01-1.392.121-1.869.514l-.137.115c.023.438.219.91.561 1.309.169.198.438.38.771.547 1.629.253 4.325.174 5.633 0 .438-.058.854-.228 1.254-.445L12 12c-1.114-.179-2.272-1.033-3.34-1.734-.574-.095-1.12-.163-1.619-.17z" fill="#f58512" paint-order="stroke markers fill"/><path d="M5.438 9.266c1.252-.877 4.254.085 6.317-.157C12.996 8.964 14 8.531 15 8c-.062.641-1.478 2.502-3 3s-4.172.578-5.281.406c-1.306-.202-2.488-1.296-1.281-2.141z" fill="#ffcc31" paint-order="stroke markers fill"/><path d="M10.69 4.077l.603 2.428.738-.67a.43.43 0 0 0-.012-.651z" fill="#fff" paint-order="stroke markers fill"/><path d="M5 2l.728-2H8l.728 2" fill="#3f6588" paint-order="stroke markers fill"/><path d="M5.94 1.35C1.788 2.462-.126 5.757.834 9.342l.415 1.547 1.685-.451c.137-.037.218-.177.181-.313l-.063-.236a1.5 1.5 0 1 1 2.898-.776l.332 1.239c.031.116.15.184.266.153l2.479-.664c.116-.031.184-.15.153-.266l-.405-1.513c-.031-.116.038-.234.153-.266l1.513-.405c.116-.031.234.037.266.153l.405 1.513c.031.116.15.184.266.153l.757-.203-1.553-5.796C10.062 1.28 8.255.729 5.94 1.35z" fill="#478cbf" paint-order="stroke markers fill"/><path d="M4.506 7.75c-.228 0-.452.045-.66.129-.416.168-.769.492-.957.936l-.094.225-1.613-.678a.25.25 0 0 0-.328.131l-.139.326.119.523 5.046.745c.492-1.14.124-1.85-.695-2.198a1.73 1.73 0 0 0-.68-.139z" fill="#363d52" paint-order="stroke markers fill"/><path d="M5.087 8.12a1.5 1.5 0 0 0-1.967.794l-.096.225c-.055.13-.205.191-.336.135l-1.605-.682-.391.92a3 3 0 0 0 1.587 3.935l5.522 2.347a2 2 0 0 0 2.623-1.058l.391-.92-.721-.306c-.11-.047-.162-.174-.115-.284l.613-1.442c.047-.11-.004-.237-.115-.284l-1.442-.613c-.11-.047-.237.004-.284.115l-.613 1.442c-.047.11-.174.162-.284.115l-2.362-1.004c-.11-.047-.162-.174-.115-.284l.502-1.181a1.5 1.5 0 0 0-.794-1.967z" fill="#478cbf" paint-order="stroke markers fill"/><circle cx="4.5" cy="9.5" r=".5" fill="#363d52" paint-order="stroke markers fill"/><path d="M2.865 2.905V.777L5 0l1.368 1.63" fill="#478cbf" paint-order="stroke markers fill"/><path d="M2.022 5.518L.936 3.187l1.941-1.941 2.33 1.087-2.121-.249-1.326 1.365z" fill="#363d52" paint-order="stroke markers fill"/><path d="M2.022 5.518l-.766-2.253 1.687-1.687 2.264.755" fill="#478cbf" paint-order="stroke markers fill"/><ellipse cx="-20.796" cy="109.409" rx="1.25" ry="1.5" transform="matrix(.965926 -.258819 .258819 .965926 0 -106.5)" fill="#fff" paint-order="stroke markers fill"/><circle cx="8.5" cy="4.5" r=".5" fill="#363d52" paint-order="stroke markers fill"/></svg>